HIERARCHY
ROOT Hips
{
	OFFSET 0.000000 0.000000 0.000000
	CHANNELS 6 Xposition Yposition Zposition Zrotation Yrotation Xrotation 
	JOINT LowerBack
	{
		OFFSET 0.000000 0.000000 0.000000
		CHANNELS 3 Zrotation Yrotation Xrotation
		JOINT Spine
		{
			OFFSET 0.028270 2.035590 -0.193380
			CHANNELS 3 Zrotation Yrotation Xrotation
			JOINT Spine1
			{
				OFFSET 0.056720 2.048850 -0.042750
				CHANNELS 3 Zrotation Yrotation Xrotation
				JOINT Neck
				{
					OFFSET 0.000000 0.000000 0.000000
					CHANNELS 3 Zrotation Yrotation Xrotation
					JOINT Neck1
					{
						OFFSET -0.054170 1.746240 0.172020
						CHANNELS 3 Zrotation Yrotation Xrotation
						JOINT Head
						{
							OFFSET 0.104070 1.761360 -0.123970
							CHANNELS 3 Zrotation Yrotation Xrotation
							End Site
							{
								OFFSET 0.000000 0.000000 0.000000
							}
						}
					}
				}
				JOINT LeftShoulder
				{
					OFFSET 0.000000 0.000000 0.000000
					CHANNELS 3 Zrotation Yrotation Xrotation
					JOINT LeftArm
					{
						OFFSET 3.362410 1.200890 -0.311210
						CHANNELS 3 Zrotation Yrotation Xrotation
						JOINT LeftForeArm
						{
							OFFSET 4.983000 -0.000000 -0.000000
							CHANNELS 3 Zrotation Yrotation Xrotation
							JOINT LeftHand
							{
								OFFSET 3.483560 -0.000000 -0.000000
								CHANNELS 3 Zrotation Yrotation Xrotation
								JOINT LeftFingerBase
								{
									OFFSET 0.000000 0.000000 0.000000
									CHANNELS 3 Zrotation Yrotation Xrotation
									JOINT LeftHandIndex1
									{
										OFFSET 0.715260 -0.000000 -0.000000
										CHANNELS 3 Zrotation Yrotation Xrotation
										End Site
										{
											OFFSET 0.000000 0.000000 0.000000
										}
									}
								}
								JOINT LThumb
								{
									OFFSET 0.000000 0.000000 0.000000
									CHANNELS 3 Zrotation Yrotation Xrotation
									End Site
									{
										OFFSET 0.000000 0.000000 0.000000
									}
								}
							}
						}
					}
				}
				JOINT RightShoulder
				{
					OFFSET 0.000000 0.000000 0.000000
					CHANNELS 3 Zrotation Yrotation Xrotation
					JOINT RightArm
					{
						OFFSET -3.136600 1.374050 -0.404650
						CHANNELS 3 Zrotation Yrotation Xrotation
						JOINT RightForeArm
						{
							OFFSET -5.241900 -0.000000 -0.000000
							CHANNELS 3 Zrotation Yrotation Xrotation
							JOINT RightHand
							{
								OFFSET -3.444170 -0.000000 -0.000000
								CHANNELS 3 Zrotation Yrotation Xrotation
								JOINT RightFingerBase
								{
									OFFSET 0.000000 0.000000 0.000000
									CHANNELS 3 Zrotation Yrotation Xrotation
									JOINT RightHandIndex1
									{
										OFFSET -0.622530 -0.000000 -0.000000
										CHANNELS 3 Zrotation Yrotation Xrotation
										End Site
										{
											OFFSET 0.000000 0.000000 0.000000
										}
									}
								}
								JOINT RThumb
								{
									OFFSET 0.000000 0.000000 0.000000
									CHANNELS 3 Zrotation Yrotation Xrotation
									End Site
									{
										OFFSET 0.000000 0.000000 0.000000
									}
								}
							}
						}
					}
				}
			}
		}
	}
}
}
MOTION
Frames: 6
Frame Time: 0.008333
4.824575 16.965155 -2.758942 -172.189605 22.971376 -154.062397 12.911374 -1.756397 -10.707524 2.155055 -3.256976 -4.368287 -6.497539 -3.261921 1.707694 6.916884 -14.226277 -5.831880 -3.868509 -0.323360 0.552493 0.000000 0.000000 0.000000 5.944997 4.320005 -1.833752 -74.924869 -46.085852 37.447932 -177.511831 -69.584495 179.963268 4.111659 -1.999753 -0.104697 -0.342224 0.843821 -0.000000 0.000000 0.000000 0.000000 0.000000 0.000000 0.000000 10.602577 -11.816353 2.316394 62.348781 -16.759664 -16.126897 1.059846 69.735636 0.005824 2.809025 -2.512403 -0.057366 0.030197 -0.120135 0.000000 0.000000 0.000000 0.000000 0.000000 0.000000 0.000000 
4.924547 16.918071 -2.907512 -172.291666 22.704924 -154.528722 13.105913 -1.678244 -10.628542 2.169235 -3.190539 -4.335735 -6.505395 -3.178536 1.778623 6.626566 -14.142488 -5.951992 -3.990811 -0.331549 0.516998 0.000000 0.000000 0.000000 6.006604 4.643127 -1.766701 -72.974878 -45.429499 35.287386 -177.424559 -68.231644 179.964652 3.913421 -1.997007 -0.099916 -0.328592 0.855511 -0.000000 0.000000 0.000000 0.000000 0.000000 0.000000 0.000000 10.835808 -11.838508 2.167794 61.938692 -16.087199 -15.875297 1.063094 69.583082 0.005470 2.480522 -2.072585 -0.041043 0.031925 -0.122810 0.000000 0.000000 0.000000 0.000000 0.000000 0.000000 0.000000 
5.021904 16.871271 -3.056307 -172.410067 22.498475 -155.021279 13.284880 -1.609736 -10.492042 2.178468 -3.130521 -4.298466 -6.521950 -3.102037 1.826421 6.339594 -14.045861 -6.086440 -4.120960 -0.340148 0.476568 0.000000 0.000000 0.000000 6.053026 4.963148 -1.690616 -70.979609 -44.558495 33.101508 -177.372867 -67.038631 179.966695 3.670754 -1.985039 -0.093480 -0.311610 0.864712 -0.000000 0.000000 0.000000 0.000000 0.000000 0.000000 0.000000 11.110947 -11.819222 2.023176 61.480805 -15.305365 -15.502322 1.069118 69.408589 0.005059 2.104435 -1.577138 -0.025514 0.034369 -0.126256 0.000000 0.000000 0.000000 0.000000 0.000000 0.000000 0.000000 
5.116339 16.825836 -3.205050 -172.539382 22.342991 -155.533352 13.453828 -1.554625 -10.298158 2.184192 -3.081499 -4.256737 -6.549478 -3.037329 1.850366 6.065308 -13.931938 -6.233761 -4.257587 -0.349052 0.431495 0.000000 0.000000 0.000000 6.081969 5.283376 -1.604348 -68.977839 -43.471140 30.946352 -177.354968 -66.025017 179.969194 3.403813 -1.965011 -0.086074 -0.292615 0.870967 -0.000000 0.000000 0.000000 0.000000 0.000000 0.000000 0.000000 11.431601 -11.749333 1.885012 60.981857 -14.409284 -15.011413 1.078217 69.203428 0.004544 1.664360 -1.037319 -0.012180 0.037724 -0.130429 0.000000 0.000000 0.000000 0.000000 0.000000 0.000000 0.000000 
5.207507 16.782875 -3.353413 -172.672144 22.229376 -156.056153 13.617960 -1.514688 -10.049956 2.187790 -3.046115 -4.210875 -6.589648 -2.987301 1.850901 5.811247 -13.798306 -6.392056 -4.398446 -0.358094 0.382230 0.000000 0.000000 0.000000 6.088893 5.603922 -1.506842 -67.003341 -42.172880 28.873187 -177.368128 -65.202697 179.971858 3.136900 -1.938379 -0.078487 -0.273100 0.873930 -0.000000 0.000000 0.000000 0.000000 0.000000 0.000000 0.000000 11.795960 -11.623569 1.755780 60.457873 -13.392635 -14.415043 1.090752 68.956787 0.003905 1.156266 -0.467257 -0.002440 0.042056 -0.135261 0.000000 0.000000 0.000000 0.000000 0.000000 0.000000 0.000000 
5.295114 16.743536 -3.501244 -172.796088 22.146997 -156.574132 13.786652 -1.489372 -9.756640 2.191241 -3.025375 -4.161978 -6.644298 -2.953132 1.829974 5.584419 -13.643193 -6.559579 -4.540697 -0.367060 0.329255 0.000000 0.000000 0.000000 6.063080 5.927532 -1.395697 -65.079852 -40.683103 26.930795 -177.409726 -64.586907 179.974353 2.896214 -1.905283 -0.071404 -0.254655 0.873266 -0.000000 0.000000 0.000000 0.000000 0.000000 0.000000 0.000000 12.200933 -11.438329 1.636914 59.926658 -12.256256 -13.729594 1.106919 68.662813 0.003140 0.585922 0.116058 0.002003 0.047334 -0.140643 0.000000 0.000000 0.000000 0.000000 0.000000 0.000000 0.000000 
